inDegrees=yes
name=ik_Shooting_orientations_forward
DataType=double
version=3
OpenSimVersion=4.3-2021-08-27-4bc7ad9
endheader
time	pelvis_tilt	pelvis_list	pelvis_rotation	pelvis_tx	pelvis_ty	pelvis_tz	hip_flexion_r	hip_adduction_r	hip_rotation_r	knee_angle_r	knee_angle_r_beta	ankle_angle_r	subtalar_angle_r	mtp_angle_r	hip_flexion_l	hip_adduction_l	hip_rotation_l	knee_angle_l	knee_angle_l_beta	ankle_angle_l	subtalar_angle_l	mtp_angle_l	lumbar_extension	lumbar_bending	lumbar_rotation	arm_flex_r	arm_add_r	arm_rot_r	elbow_flex_r	pro_sup_r	wrist_flex_r	wrist_dev_r	arm_flex_l	arm_add_l	arm_rot_l	elbow_flex_l	pro_sup_l	wrist_flex_l	wrist_dev_l
10	-2.517360559401131	-1.65031075087458	147.2641859902915	0	0.9399999999999999	0	43.25026588206305	-10.07958951599653	0	58.78652059421673	1.026018340160535	-5.010366616261536	0	0	43.25026588206305	-10.07958951599653	0	58.78652059421673	1.026018340160535	-5.010366616261536	0	0	-0.1154097312626596	-1.551454504410129	-2.062870422698053	0	-10.85703789602367	0	75.78320116135832	45.25334817826099	0	0	21.26828049281012	-43.98464206353007	-15.84630847088464	75.78320116135832	45.25334817826099	0	0
10.01	-2.516671493391595	-1.650143074667332	147.2578294677354	0	0.9399999999999999	0	43.25168272435786	-10.07937367452735	0	58.78728883420561	1.026031748477787	-5.010330627562848	0	0	43.25168272435786	-10.07937367452735	0	58.78728883420561	1.026031748477787	-5.010330627562848	0	0	-0.1268757019280737	-1.558674282266365	-2.077630095254434	0	-10.85876638684933	0	75.78256737074871	45.25279761133305	0	0	21.33597944186319	-44.01630338303141	-15.81694190091934	75.78256737074871	45.25279761133305	0	0
10.02	-2.542627514612531	-1.649032951836171	147.2720041480464	0	0.9399999999999999	0	43.25503141734612	-10.07886550733753	0	58.78910890310764	1.02606351467274	-5.010245987338821	0	0	43.25503141734612	-10.07886550733753	0	58.78910890310764	1.02606351467274	-5.010245987338821	0	0	-0.1533473230966736	-1.57880859584609	-2.07542243446313	0	-10.86285735243858	0	75.78106941053427	45.25150027377658	0	0	21.54638147924959	-44.01519703249416	-15.66407908914797	75.78106941053427	45.25150027377658	0	0
10.03	-2.548138994959525	-1.650374664236908	147.2350236335559	0	0.9399999999999999	0	43.25520578735462	-10.0788382616098	0	58.78920461654224	1.026065185187312	-5.010241379282179	0	0	43.25520578735462	-10.0788382616098	0	58.78920461654224	1.026065185187312	-5.010241379282179	0	0	-0.1601756650096178	-1.58000828901805	-2.072723630651186	0	-10.86307038270911	0	75.78099141119681	45.25143141808163	0	0	21.65902278936378	-43.9750775262027	-15.69187721967303	75.78099141119681	45.25143141808163	0	0
10.04	-2.556041190116259	-1.633765467896769	147.2429510998742	0	0.9399999999999999	0	43.25834829491644	-10.07837912894203	0	58.7909195464534	1.026095116360703	-5.010166106119645	0	0	43.25834829491644	-10.07837912894203	0	58.7909195464534	1.026095116360703	-5.010166106119645	0	0	-0.1999477988085885	-1.571364107771106	-2.086603251154636	0	-10.86693932118146	0	75.77958565585854	45.25024635955299	0	0	21.88048911165605	-43.94295621178597	-15.5352246274829	75.77958565585854	45.25024635955299	0	0
10.05	-2.562980949838955	-1.632462668195969	147.2284674070451	0	0.9399999999999999	0	43.25907030221987	-10.07826592972428	0	58.79131344423364	1.026101991173885	-5.010146966151646	0	0	43.25907030221987	-10.07826592972428	0	58.79131344423364	1.026101991173885	-5.010146966151646	0	0	-0.1839360117533178	-1.568070510144004	-2.008145777890095	0	-10.86781816064928	0	75.7792626880497	45.24996031144516	0	0	22.17274094101911	-43.89141282683772	-15.1811287290421	75.7792626880497	45.24996031144516	0	0
10.06	-2.56496914890432	-1.624811343258858	147.2424648183405	0	0.9399999999999999	0	43.26244730220687	-10.07777357418455	0	58.79315915237832	1.02613420485804	-5.010066261646131	0	0	43.26244730220687	-10.07777357418455	0	58.79315915237832	1.02613420485804	-5.010066261646131	0	0	-0.1902384967970681	-1.557057002059948	-2.031759722099332	0	-10.87197990951884	0	75.777752034259	45.24868909189816	0	0	22.29916744227987	-43.85882991889493	-15.06330414977095	75.777752034259	45.24868909189816	0	0
10.07	-2.581276559925712	-1.615377201516549	147.2392505857923	0	0.9399999999999999	0	43.26306845411923	-10.07767648027641	0	58.79349769104994	1.026140113472505	-5.010049869839736	0	0	43.26306845411923	-10.07767648027641	0	58.79349769104994	1.026140113472505	-5.010049869839736	0	0	-0.2235467685226127	-1.570220808662603	-2.009944334977992	0	-10.8727360154235	0	75.77747418060974	45.24844348974121	0	0	22.55989042186465	-43.87142657760734	-14.93035158643985	75.77747418060974	45.24844348974121	0	0
10.08	-2.586478412198291	-1.61347875540659	147.2360283684297	0	0.9399999999999999	0	43.26369489679342	-10.0775785958737	0	58.79383895067114	1.026146069576499	-5.010033349886013	0	0	43.26369489679342	-10.0775785958737	0	58.79383895067114	1.026146069576499	-5.010033349886013	0	0	-0.2268078027870251	-1.565480064252227	-2.013651130098782	0	-10.87349840035619	0	75.77719396029735	45.24819584050635	0	0	22.8970503489107	-43.86194447820967	-14.66227182304829	75.77719396029735	45.24819584050635	0	0
10.09	-2.591629558695757	-1.600234577029926	147.2290870603867	0	0.9399999999999999	0	43.26399200592385	-10.07753236396312	0	58.79400128934722	1.0261489029209	-5.010025554489942	0	0	43.26399200592385	-10.07753236396312	0	58.79400128934722	1.0261489029209	-5.010025554489942	0	0	-0.2357696834849867	-1.549132293044607	-2.027052381521288	0	-10.87386078752927	0	75.777061057059	45.24807878056908	0	0	23.09091263992459	-43.77465442148101	-14.66265477730935	75.777061057059	45.24807878056908	0	0
